# xmcd
# 
# Track frame offsets:
#   150
#   16487
#   30910
#   44887
#   58140
#   73517
#   87620
#   102745
#   116255
#   131995
#   144992
#   164725
#   186092
#   200120
#   210520
# 
# Disc length: 2988 seconds
# 
# Revision: 2
# Processed by: cddbd v1.5.2PL0 Copyright (c) Steve Scherf et al.
# Submitted via: Synapstar 1.0 
# 
DISCID=ea0baa0f
DTITLE=Various Artist - SC-8335
DYEAR=1900
DGENRE=Country
TTITLE0=Gary Stewart - She's Lookin' Single
TTITLE1=Ronnie Milsap - Stand By My Woman Man
TTITLE2=Johnny Cash - Man In Black
TTITLE3=Jerry Reed - Amos, Moses
TTITLE4=Conway Twitty - Fifteen Years Ago
TTITLE5=Mickey Gilley - I Overlooked An Orchid
TTITLE6=Charlie Rich - Every Time You Touch Me
TTITLE7=Don Williams - Love Me Tonight
TTITLE8=Merle Haggard - If We're Not Back In Love By Monday
TTITLE9=Roy Clark - Thank God and Greyhound
TTITLE10=T.G. Sheppard - The Last Cheater's Waltz
TTITLE11=Marty Robbins - El Paso
TTITLE12=The Statler Brothers - Do You Remember These
TTITLE13=Willie Nelson - If You've Got The Money, I've Got The Time
TTITLE14=Charlie Pride - Hope You're Feelin' Me
EXTD=MediaType: Karaoke CD+G Producer: Sound Choice
EXTT0=
EXTT1=
EXTT2=
EXTT3=
EXTT4=
EXTT5=
EXTT6=
EXTT7=
EXTT8=
EXTT9=
EXTT10=
EXTT11=
EXTT12=
EXTT13=
EXTT14=
PLAYORDER=
